# xmcd
#
# Track frame offsets: 
#        150
#        5459
#        19779
#        28463
#        39710
#        49898
#        59330
#        68406
#        81522
#        89014
#        97541
#        111121
#        120849
#        128781
#        144365
#        160949
#        171070
#
# Disc length: 2548 seconds
#
# Revision: 0
# Processed by: cddbd v1.5.2PL0 Copyright (c) Steve Scherf et al.
# Submitted via: ExactAudioCopyFreeDBPlugin 1.0
#
DISCID=d909f211
DTITLE=Yuji Hamaguchi - Going Home
DYEAR=2015
DGENRE=Blues
TTITLE0=Happy Birthday, Mr. Cameraman
TTITLE1=Welcome Pickin'～Caravan
TTITLE2=Spring Power
TTITLE3=Wakinotani
TTITLE4=Lucky Train～Freight Train～My Grandfather's Clock
TTITLE5=Amazing Grace Slide
TTITLE6=Hangover Shuffle
TTITLE7=The Entertainer
TTITLE8=Thank You, Mississippi John Hurt
TTITLE9=Shibinawa Blues
TTITLE10=Tokyo Summit
TTITLE11=Short Time Minor
TTITLE12=Great Dream From Heaven
TTITLE13=Gymnopedie No.1
TTITLE14=Mississippi Blues
TTITLE15=Arigato, Tokie Robinson
TTITLE16=しあわせ
EXTD=
EXTT0=
EXTT1=
EXTT2=
EXTT3=
EXTT4=
EXTT5=
EXTT6=
EXTT7=
EXTT8=
EXTT9=
EXTT10=
EXTT11=
EXTT12=
EXTT13=
EXTT14=
EXTT15=
EXTT16=
PLAYORDER=
